<svg width="49" height="48" viewBox="0 0 49 48" fill="none" xmlns="http://www.w3.org/2000/svg">
<g clip-path="url(#clip0_1_1069)">
<path d="M24.26 48C37.5148 48 48.26 37.2548 48.26 24C48.26 10.7452 37.5148 0 24.26 0C11.0052 0 0.26001 10.7452 0.26001 24C0.26001 37.2548 11.0052 48 24.26 48Z" fill="#FFB577" fill-opacity="0.07"/>
<path d="M27.8729 20.6217L27.8718 20.6145C27.5425 18.4185 27.1573 15.8503 24.3252 13.6146C22.7703 12.387 21.1531 11.75 19.5208 11.75C16.5514 11.75 14.6802 13.8465 14.5819 13.9594C14.5057 14.0444 13.7538 14.8943 13.0829 16.208C12.4086 17.5285 11.8056 19.3385 12.0763 21.3205C12.4075 23.7458 13.9578 25.8223 16.6214 27.5032L16.6316 27.5093L16.6822 27.5379L16.6937 27.544C16.8005 27.5974 18.101 28.2421 19.5619 28.9317C21.0146 29.6174 22.6514 30.3598 23.4176 30.5977C24.1035 30.8104 24.6814 30.9144 25.2269 30.9144C25.6568 30.9144 26.0611 30.8447 26.4396 30.7089L28.9523 32.2959C28.9072 32.7281 28.8929 33.3458 29.0512 33.9715C29.2316 34.6849 29.6402 35.4189 30.4864 35.8849C30.9208 36.1242 31.4081 36.2498 31.9035 36.25C32.6129 36.25 33.3151 35.9932 33.864 35.4953C34.4801 34.9364 34.7901 34.1782 34.7531 33.3874C35.2314 33.2394 35.8045 32.9551 36.1713 32.4062C36.457 31.9768 36.6894 31.2583 36.3175 30.233C35.932 29.1672 35.1443 28.6426 34.2962 28.4383C33.5115 28.2492 32.6726 28.3316 32.0277 28.4922L29.8039 26.741C29.9279 25.9958 29.738 25.2761 29.2385 24.6588C28.3114 23.51 28.1013 22.1478 27.8729 20.6217ZM27.1678 27.9236L27.1332 27.9511L27.1102 27.9888L27.0564 28.0767L27.0555 28.078C26.7251 28.6258 26.3824 28.914 26.0756 29.0685C25.7678 29.2234 25.4758 29.2541 25.2277 29.2541C24.8669 29.2541 24.4505 29.1805 23.9064 29.0122C23.2515 28.809 21.7473 28.1282 20.3372 27.4628C18.9613 26.8135 17.6996 26.1909 17.4655 26.0753C15.2097 24.642 13.9719 22.9658 13.7154 21.1023C13.4989 19.5325 14.0074 18.0361 14.5889 16.914C14.8785 16.3551 15.1831 15.895 15.4171 15.5728C15.5339 15.4119 15.6329 15.2857 15.7031 15.1993C15.774 15.1121 15.8147 15.0665 15.8146 15.0665L15.817 15.0639C15.823 15.0573 16.1934 14.6453 16.8393 14.2341C17.4925 13.8184 18.4152 13.4111 19.5213 13.4111C20.7502 13.4111 22.022 13.9077 23.304 14.92C25.6157 16.7455 25.9128 18.7055 26.2379 20.8697L26.2413 20.8925C26.4797 22.4812 26.7371 24.1969 27.9546 25.705C28.0574 25.8318 28.1508 25.9812 28.1814 26.1707C28.2113 26.3565 28.186 26.6121 27.9949 26.9607C27.7475 27.4133 27.382 27.7401 27.2588 27.8502C27.2548 27.8538 27.2512 27.857 27.2477 27.8601L27.1678 27.9236ZM28.1492 25.548C28.3814 25.8343 28.6394 26.3051 28.2141 27.0809L28.1492 25.548ZM32.9435 32.659L33.1926 32.68L30.1615 31.3936L30.295 31.1823L27.9211 29.6833C28.0971 29.4877 28.2565 29.2775 28.3975 29.0547C28.654 28.8236 28.8873 28.5682 29.0945 28.2921L31.3423 30.0617L31.3434 30.0625C31.4522 30.1472 31.5802 30.2036 31.7162 30.2265C31.8521 30.2495 31.9916 30.2382 32.1221 30.1938L32.1259 30.1925C32.1639 30.1788 32.73 29.9871 33.3445 29.985C33.9623 29.9828 34.5348 30.166 34.7644 30.7999C34.8981 31.1661 34.8698 31.3731 34.7994 31.48C34.7162 31.6054 34.5306 31.7133 34.2911 31.7908C34.062 31.8648 33.8349 31.8947 33.7335 31.8996C33.6002 31.9051 33.4702 31.9429 33.3547 32.0097C33.2389 32.0766 33.141 32.1707 33.0695 32.2838C32.9979 32.3969 32.9547 32.5256 32.9435 32.659Z" fill="#FFB577" stroke="#FFB577" stroke-width="0.5"/>
</g>
<defs>
<clipPath id="clip0_1_1069">
<rect width="48" height="48" fill="white" transform="translate(0.26001)"/>
</clipPath>
</defs>
</svg>
