<svg width="48" height="48" viewBox="0 0 48 48" fill="none" xmlns="http://www.w3.org/2000/svg">
<circle cx="24" cy="24" r="24" fill="#FFB577" fill-opacity="0.07"/>
<path d="M34.0896 14.2816V10.6996C34.0859 10.5389 34.0406 10.3818 33.9581 10.2438C33.8757 10.1058 33.7588 9.99154 33.619 9.91217C33.4792 9.8328 33.3212 9.79104 33.1604 9.79097C32.9996 9.7909 32.8416 9.83251 32.7017 9.91175L31.6436 10.5484L30.5855 9.91175C30.4426 9.82684 30.2793 9.78241 30.113 9.78321C29.9468 9.78402 29.7839 9.83004 29.6419 9.91633L28.5884 10.5484L27.5303 9.91633C27.3881 9.82981 27.2249 9.78404 27.0585 9.78404C26.892 9.78404 26.7288 9.82981 26.5867 9.91633L25.5332 10.5484L24.4796 9.91633C24.3375 9.82981 24.1743 9.78404 24.0078 9.78404C23.8414 9.78404 23.6782 9.82981 23.536 9.91633L22.4825 10.5484L21.4244 9.91633C21.2819 9.83073 21.1189 9.78551 20.9526 9.78551C20.7864 9.78551 20.6233 9.83073 20.4808 9.91633L19.4273 10.5484L18.3738 9.91633C18.2317 9.82981 18.0684 9.78404 17.902 9.78404C17.7356 9.78404 17.5724 9.82981 17.4302 9.91633L16.3767 10.5484L15.3232 9.91633C15.1839 9.8357 15.0259 9.79283 14.865 9.79196C14.704 9.79108 14.5456 9.83224 14.4054 9.91135C14.2652 9.99047 14.1481 10.1048 14.0657 10.243C13.9832 10.3813 13.9383 10.5387 13.9353 10.6996V14.2816C12.7214 20.3841 12.7214 26.666 13.9353 32.7685V36.3505C13.939 36.5112 13.9842 36.6683 14.0667 36.8063C14.1492 36.9443 14.266 37.0585 14.4059 37.1379C14.5457 37.2173 14.7037 37.259 14.8645 37.2591C15.0252 37.2592 15.1833 37.2176 15.3232 37.1383L16.3813 36.5016L17.4394 37.1383C17.5823 37.2233 17.7456 37.2677 17.9118 37.2669C18.078 37.2661 18.2409 37.2201 18.383 37.1338L19.4365 36.5016L20.4946 37.1338C20.6367 37.2203 20.8 37.2661 20.9664 37.2661C21.1328 37.2661 21.296 37.2203 21.4382 37.1338L22.4917 36.5016L23.5452 37.1338C23.6874 37.2203 23.8506 37.2661 24.017 37.2661C24.1834 37.2661 24.3466 37.2203 24.4888 37.1338L25.5423 36.5016L26.6004 37.1338C26.7429 37.2194 26.906 37.2646 27.0722 37.2646C27.2384 37.2646 27.4015 37.2194 27.544 37.1338L28.5975 36.5016L29.651 37.1338C29.7932 37.2203 29.9564 37.2661 30.1228 37.2661C30.2893 37.2661 30.4525 37.2203 30.5946 37.1338L31.6481 36.5016L32.7017 37.1338C32.8411 37.2138 32.9989 37.2562 33.1597 37.2568C33.3204 37.2574 33.4786 37.2162 33.6186 37.1372C33.7586 37.0582 33.8756 36.9441 33.9582 36.8062C34.0408 36.6683 34.086 36.5112 34.0896 36.3505V32.7685C35.3034 26.666 35.3034 20.3841 34.0896 14.2816ZM15.7675 12.3165L15.9049 12.399C16.0471 12.4855 16.2103 12.5313 16.3767 12.5313C16.5431 12.5313 16.7063 12.4855 16.8485 12.399L17.902 11.7669L18.9555 12.399C19.0977 12.4855 19.2609 12.5313 19.4273 12.5313C19.5937 12.5313 19.757 12.4855 19.8991 12.399L20.9526 11.7669L22.0107 12.399C22.1532 12.4846 22.3163 12.5298 22.4825 12.5298C22.6488 12.5298 22.8118 12.4846 22.9543 12.399L24.0078 11.7669L25.0614 12.399C25.2035 12.4855 25.3667 12.5313 25.5332 12.5313C25.6996 12.5313 25.8628 12.4855 26.0049 12.399L27.0585 11.7669L28.1166 12.399C28.2587 12.4857 28.4219 12.5317 28.5884 12.5318C28.7547 12.5305 28.9176 12.4846 29.0602 12.399L30.1137 11.7669L31.1718 12.4036C31.3151 12.4868 31.4778 12.5307 31.6436 12.5307C31.8093 12.5307 31.9721 12.4868 32.1154 12.4036L32.2574 12.3165V13.4479H15.7675V12.3165ZM32.2574 34.7336L32.1199 34.6511C31.9778 34.5646 31.8146 34.5188 31.6481 34.5188C31.4817 34.5188 31.3185 34.5646 31.1763 34.6511L30.1228 35.2832L29.0693 34.6511C28.9272 34.5646 28.7639 34.5188 28.5975 34.5188C28.4311 34.5188 28.2679 34.5646 28.1257 34.6511L27.0722 35.2832L26.0141 34.6511C25.8716 34.5655 25.7085 34.5203 25.5423 34.5203C25.3761 34.5203 25.213 34.5655 25.0705 34.6511L24.017 35.2832L22.9635 34.6511C22.8213 34.5646 22.6581 34.5188 22.4917 34.5188C22.3253 34.5188 22.1621 34.5646 22.0199 34.6511L20.9664 35.2832L19.9083 34.6511C19.7658 34.5655 19.6027 34.5203 19.4365 34.5203C19.2703 34.5203 19.1072 34.5655 18.9647 34.6511L17.9112 35.2832L16.8531 34.6465C16.7098 34.5633 16.547 34.5194 16.3813 34.5194C16.2156 34.5194 16.0528 34.5633 15.9095 34.6465L15.7675 34.7336V33.6022H32.2574V34.7336ZM32.4177 31.77H15.6072C14.604 26.3191 14.604 20.731 15.6072 15.2801H32.4177C33.4208 20.731 33.4208 26.3191 32.4177 31.77Z" fill="#FFB577"/>
<path d="M28.0753 20.8271C27.8069 20.5232 27.477 20.2799 27.1074 20.1133C26.7378 19.9466 26.3371 19.8605 25.9316 19.8606H25.5011C25.3086 19.8633 25.1168 19.8848 24.9285 19.9247V18.4864C24.9285 18.2434 24.832 18.0104 24.6602 17.8386C24.4884 17.6668 24.2554 17.5703 24.0124 17.5703C23.7694 17.5703 23.5364 17.6668 23.3646 17.8386C23.1928 18.0104 23.0963 18.2434 23.0963 18.4864V19.9247C22.908 19.8848 22.7162 19.8633 22.5237 19.8606H22.0932C21.6875 19.8607 21.2866 19.9471 20.9168 20.1139C20.5471 20.2807 20.217 20.5242 19.9485 20.8283C19.68 21.1323 19.4791 21.4899 19.3593 21.8775C19.2394 22.265 19.2033 22.6735 19.2533 23.0761L19.6838 26.5161C19.7717 27.2076 20.1085 27.8433 20.6312 28.3045C21.1539 28.7657 21.8267 29.0206 22.5237 29.0216C23.0499 29.0209 23.5655 28.8734 24.0124 28.5956C24.4593 28.8734 24.9749 29.0209 25.5011 29.0216C26.1981 29.0206 26.8709 28.7657 27.3936 28.3045C27.9163 27.8433 28.2531 27.2076 28.341 26.5161L28.7716 23.0761C28.8212 22.6733 28.7849 22.2645 28.6648 21.8768C28.5448 21.4892 28.3439 21.1313 28.0753 20.8271ZM26.9531 22.8516L26.5225 26.287C26.4908 26.5358 26.3697 26.7646 26.1818 26.9306C25.9938 27.0966 25.7519 27.1886 25.5011 27.1894C25.3509 27.1882 25.2029 27.1539 25.0675 27.089C24.9322 27.024 24.8128 26.9301 24.7178 26.8138C24.6315 26.7106 24.5236 26.6275 24.4018 26.5705C24.2799 26.5135 24.147 26.484 24.0124 26.484C23.8779 26.484 23.745 26.5135 23.6231 26.5705C23.5012 26.6275 23.3933 26.7106 23.307 26.8138C23.2121 26.9301 23.0927 27.024 22.9573 27.089C22.8219 27.1539 22.6739 27.1882 22.5237 27.1894C22.273 27.1886 22.031 27.0966 21.8431 26.9306C21.6551 26.7646 21.534 26.5358 21.5023 26.287L21.0717 22.8516C21.0539 22.7068 21.067 22.5598 21.1102 22.4203C21.1533 22.2809 21.2255 22.1522 21.322 22.0427C21.4186 21.9332 21.5372 21.8454 21.6701 21.7851C21.803 21.7248 21.9472 21.6933 22.0932 21.6928H22.5237C22.6739 21.694 22.8219 21.7283 22.9573 21.7932C23.0927 21.8581 23.2121 21.9521 23.307 22.0684C23.3963 22.1668 23.5052 22.2455 23.6266 22.2993C23.7481 22.3531 23.8795 22.3809 24.0124 22.3809C24.1453 22.3809 24.2767 22.3531 24.3982 22.2993C24.5197 22.2455 24.6285 22.1668 24.7178 22.0684C24.8128 21.9521 24.9322 21.8581 25.0675 21.7932C25.2029 21.7283 25.3509 21.694 25.5011 21.6928H25.9316C26.0776 21.6933 26.2218 21.7248 26.3547 21.7851C26.4876 21.8454 26.6063 21.9332 26.7028 22.0427C26.7993 22.1522 26.8715 22.2809 26.9146 22.4203C26.9578 22.5598 26.9709 22.7068 26.9531 22.8516Z" fill="#FFB577"/>
</svg>
